<svg t="1665657885392" class="icon" viewBox="0 0 1024 1024" version="1.1" xmlns="http://www.w3.org/2000/svg" p-id="4026" width="200" height="200"><path d="M921.7 418.9c0-103.6-84.3-188-188-188-46.5 0-89.4 20.8-118 55.4-28.6-34.6-71.5-55.4-118-55.4-88.4 0-162.8 61.4-182.7 143.8-2.5-0.1-4.9-0.2-7.4-0.2-103.6 0-188 84.3-188 188 0 79.2 30.7 153.9 86.4 210.2 49.9 50.3 114.6 80.8 184.3 87.2v1.3h70.3V860c69.8-6.4 134.5-36.9 184.3-87.2 19-19.2 35.1-40.5 48-63.4 53.5-12.8 102.5-40.3 142.1-80.3 56-56.3 86.7-131 86.7-210.2zM497.8 281c41.5 0 78.8 24.7 95 62.8l18.4 43.4c-21-8.1-43.8-12.6-67.6-12.6-46.5 0-89.4 20.8-118 55.4-16.5-19.9-37.7-35.3-61.7-44.7C379.1 325.4 433.3 281 497.8 281z m-62.2 530.2H415.8c-135.7-1.4-246-113-246-248.7 0-76.1 61.9-138 138-138 41.5 0 78.8 24.7 95 62.8l23 54.1 23-54.1c16.2-38.2 53.5-62.8 95-62.8 76.1 0 138 61.9 138 138-0.2 135.7-110.6 247.3-246.2 248.7z m283.6-163.1c8.2-27.4 12.4-56.2 12.4-85.6 0-76.9-46.4-143.1-112.6-172.2l19.8-46.6c16.2-38.2 53.5-62.8 95-62.8 76.1 0 138 61.9 138 138-0.1 102.6-63.2 191.4-152.6 229.2z" fill="#B60005" p-id="4027"></path></svg>